Coordinates
version=1
nRows=10
nColumns=40
inDegrees=yes

Units are S.I. units (second, meters, Newtons, ...)
If the header above contains a line with 'inDegrees', this indicates whether rotational values are in degrees (yes) or radians (no).

endheader
time	pelvis_tilt	pelvis_list	pelvis_rotation	pelvis_tx	pelvis_ty	pelvis_tz	hip_flexion_r	hip_adduction_r	hip_rotation_r	knee_angle_r	knee_angle_r_beta	ankle_angle_r	subtalar_angle_r	mtp_angle_r	hip_flexion_l	hip_adduction_l	hip_rotation_l	knee_angle_l	knee_angle_l_beta	ankle_angle_l	subtalar_angle_l	mtp_angle_l	lumbar_extension	lumbar_bending	lumbar_rotation	arm_flex_r	arm_add_r	arm_rot_r	elbow_flex_r	pro_sup_r	wrist_flex_r	wrist_dev_r	arm_flex_l	arm_add_l	arm_rot_l	elbow_flex_l	pro_sup_l	wrist_flex_l	wrist_dev_l
      6.00000000	     83.78675526	     42.04429799	     87.94185431	      0.42353191	      0.62358709	      0.69676215	     98.97008081	     -4.89645397	      3.11035385	     53.29777108	      0.93022159	      6.25675208	      0.00000000	      0.00000000	     95.92468558	    -23.44811571	     -7.51918267	     54.41907964	      0.94979212	      8.74609665	      0.00000000	      0.00000000	    -39.83206429	    -15.50703908	    -12.97059427	     73.35245471	     11.43989826	      8.38535648	      9.60304349	     26.10352759	      0.00000000	      0.00000000	    -89.23620752	   -119.80319673	    -81.07177075	     67.11491513	     23.55102392	      0.00000000	      0.00000000
      6.00500000	     83.75039102	     42.26334619	     87.97830563	      0.42369798	      0.62369894	      0.69534686	     99.06849106	     -4.88535291	      3.20471644	     53.79135243	      0.93883621	      6.47338993	      0.00000000	      0.00000000	     96.01505787	    -23.52719812	     -7.46140004	     54.89240586	      0.95805322	      8.92699035	      0.00000000	      0.00000000	    -39.79671055	    -15.52056094	    -12.93062957	     73.03092165	     10.76763634	     15.29381048	      9.48968891	     26.88917894	      0.00000000	      0.00000000	    -89.24901642	   -119.80292662	    -80.82634615	     67.16027721	     23.43770815	      0.00000000	      0.00000000
      6.01000000	     83.73147173	     42.37266617	     88.02337585	      0.42402924	      0.62376552	      0.69382231	     99.26758224	     -4.88207238	      3.32331784	     54.24231132	      0.94670693	      6.65273165	      0.00000000	      0.00000000	     96.20707207	    -23.53013818	     -7.29433406	     55.30361749	      0.96523021	      9.08368631	      0.00000000	      0.00000000	    -39.63949543	    -15.51800233	    -12.90251422	     72.80353668	     10.56449299	     16.44357298	      9.17460256	     32.49050626	      0.00000000	      0.00000000	    -89.26370931	   -119.80320755	    -80.61186663	     66.74289350	     30.28885342	      0.00000000	      0.00000000
      6.01500000	     83.60266664	     42.82923712	     87.79657641	      0.42390894	      0.62447330	      0.69290943	     99.06235564	     -4.49180326	      3.47698451	     54.63075389	      0.95348653	      6.90197512	      0.00000000	      0.00000000	     96.02729118	    -24.08270394	     -7.48665130	     55.89660839	      0.97557986	      9.30656195	      0.00000000	      0.00000000	    -39.85501746	    -15.79561042	    -12.70061728	     73.24635525	     11.15405394	     11.86884120	      8.16770218	     36.45930469	      0.00000000	      0.00000000	    -89.26058962	   -119.80243914	    -80.55161080	     66.38031057	     35.24830717	      0.00000000	      0.00000000
      6.02000000	     83.66681383	     42.87182018	     88.04683629	      0.42425127	      0.62392113	      0.69130868	     99.34206400	     -4.81079462	      3.50832436	     55.12366766	      0.96208950	      7.05303488	      0.00000000	      0.00000000	     96.27860393	    -23.75821902	     -7.26392361	     56.21173223	      0.98107981	      9.41728053	      0.00000000	      0.00000000	    -39.65937823	    -15.54470965	    -12.80548427	     72.74889215	     11.25589068	      9.67544028	      9.32566141	     29.36443357	      0.00000000	      0.00000000	    -89.28024424	   -119.80311821	    -80.10674149	     67.29941474	     22.83992592	      0.00000000	      0.00000000
      6.02500000	     83.68048533	     43.00226229	     88.06646610	      0.42456821	      0.62393335	      0.68986096	     99.49794519	     -4.79497047	      3.62681251	     55.54761996	      0.96948886	      7.21874421	      0.00000000	      0.00000000	     96.46004235	    -23.76805006	     -7.09158951	     56.62180873	      0.98823699	      9.56772424	      0.00000000	      0.00000000	    -39.51197663	    -15.49872592	    -12.72712484	     72.73250592	     11.66774722	      5.32013100	      9.71420827	     24.47367972	      0.00000000	      0.00000000	    -89.28688951	   -119.80266826	    -80.13540140	     67.51626473	     24.26534926	      0.00000000	      0.00000000
      6.03000000	     83.69611461	     43.24472743	     88.08532994	      0.42468217	      0.62394985	      0.68863724	     99.53220700	     -4.81772209	      3.65045058	     55.97910320	      0.97701966	      7.39554671	      0.00000000	      0.00000000	     96.50033101	    -23.80644101	     -6.99404784	     57.03889255	      0.99551648	      9.73707053	      0.00000000	      0.00000000	    -39.53059644	    -15.47320248	    -12.73139569	     72.50018344	     11.34098967	      8.91430906	      9.50922010	     26.50437055	      0.00000000	      0.00000000	    -89.29994248	   -119.80279785	    -79.65843998	     67.31492073	     23.95051783	      0.00000000	      0.00000000
      6.03500000	     83.59478073	     43.41549623	     88.14190018	      0.42490024	      0.62400981	      0.68731363	     99.64750700	     -4.75526905	      3.83132368	     56.38162913	      0.98404507	      7.56434104	      0.00000000	      0.00000000	     96.58141242	    -23.91738629	     -7.03672523	     57.45040427	      1.00269871	      9.87854956	      0.00000000	      0.00000000	    -39.45881906	    -15.53552235	    -12.68993590	     72.21861258	     11.06629037	     11.30215533	      9.54517699	     26.84057749	      0.00000000	      0.00000000	    -89.30841887	   -119.80331480	    -79.50454673	     67.46681034	     23.22873023	      0.00000000	      0.00000000
      6.04000000	     83.58126147	     43.62224145	     88.19017217	      0.42501629	      0.62403606	      0.68608776	     99.70708157	     -4.77378444	      3.91169797	     56.80079292	      0.99136085	      7.75560125	      0.00000000	      0.00000000	     96.63694178	    -23.96782993	     -6.99349065	     57.84830814	      1.00964344	     10.00173994	      0.00000000	      0.00000000	    -39.43163243	    -15.51429683	    -12.66887901	     72.03367871	     10.96135827	     12.10664849	      9.56499204	     27.13233666	      0.00000000	      0.00000000	    -89.31772258	   -119.80324330	    -79.28046332	     67.51736596	     23.16621025	      0.00000000	      0.00000000
      6.04500000	     87.65548340	     41.41786732	     87.68133807	      0.42543125	      0.61526298	      0.68056467	    101.67734129	     -8.16579435	      0.59776833	     57.42401243	      1.00223809	      8.13500693	      0.00000000	      0.00000000	    100.55224803	    -20.26892188	     -2.39453325	     58.05356226	      1.01322580	     10.04200976	      0.00000000	      0.00000000	    -35.70897202	    -10.50569618	     -0.73239720	     70.93353534	      1.94680666	    -16.14881232	     10.38833671	     30.78281994	      0.00000000	      0.00000000	     71.87310405	     -1.59458599	    -27.67717132	     15.88047754	     30.80063346	      0.00000000	      0.00000000
